<svg width="58" height="31" viewBox="0 0 58 31" fill="none" xmlns="http://www.w3.org/2000/svg">
<path d="M9.39601 0H4.74801L0.616455 12.9111H3.1126L4.23156 9.38207H9.99853L11.2036 12.9111H13.6997L9.39601 0ZM4.92016 7.31629L7.07201 0.602518L9.30993 7.31629H4.92016ZM17.1427 12.9111V0H14.8187V12.9111H17.1427ZM22.135 3.44296V0H19.897V3.44296H18.5199V5.25052H18.7781C18.7781 5.25052 19.9831 5.25052 19.9831 6.54163C19.9831 7.05807 19.9831 10.6732 19.9831 10.6732C19.9831 11.9643 21.016 12.9972 22.3071 12.9972H23.8564V10.9314C23.8564 10.9314 23.34 10.9314 22.9096 10.9314C22.4793 10.9314 22.221 10.5871 22.221 10.2428V6.71378C22.221 5.33659 19.2945 5.25052 18.8642 5.25052H23.8564V3.44296H22.135ZM7.93275 22.9818C7.93275 22.9818 5.4366 22.3793 5.35053 22.3793C4.48979 22.121 3.80119 21.7767 3.80119 20.916C3.80119 19.9692 4.92016 19.1945 6.38342 19.1945C8.1049 19.1945 9.13778 20.2274 9.13778 21.3464H11.5479C11.5479 19.1084 9.82638 17.2148 6.38342 17.2148C3.54297 17.2148 1.39112 18.7641 1.39112 20.916C1.39112 23.1539 2.85438 24.2729 4.92016 24.7893C4.92016 24.7893 7.4163 25.3918 7.50238 25.3918C8.44919 25.6501 9.22386 26.0804 9.22386 27.0273C9.22386 28.2323 7.7606 28.9209 6.29734 28.8348C4.23156 28.6627 3.4569 27.2855 3.4569 26.3387H1.04683C1.04683 28.4044 2.76831 30.8145 6.29734 30.9006C8.96564 30.9867 11.6339 29.5234 11.6339 27.1133C11.72 24.7893 10.1707 23.5843 7.93275 22.9818ZM17.573 28.7487C16.1098 28.7487 15.3351 27.3715 15.3351 25.7361C15.3351 24.1007 16.2819 22.7235 17.573 22.7235C18.6059 22.7235 19.3806 23.4982 19.6388 24.445H22.135C21.7046 22.035 19.811 20.6578 17.573 20.6578C15.0769 20.6578 12.839 22.8957 13.0111 25.9944C13.0972 28.9209 15.163 30.7284 17.6591 30.7284C19.9831 30.7284 21.7046 29.1791 22.135 27.1133H19.5527C19.2945 27.9741 18.6059 28.7487 17.573 28.7487ZM28.5905 20.7438C27.2133 20.8299 26.0083 22.2932 25.9222 24.8754C25.9222 23.5843 26.5247 22.6375 27.8159 22.6375C29.2791 22.6375 29.7095 23.6704 29.7095 24.8754V30.4702H32.0335V24.1007C32.1196 21.9489 30.2259 20.6578 28.5905 20.7438ZM23.6843 17.6452V30.5563H25.9222V17.6452H23.6843ZM38.3169 20.7438C35.8207 20.7438 33.5828 22.5514 33.5828 25.7361C33.5828 28.9209 35.8207 30.7284 38.3169 30.7284C40.813 30.7284 43.051 28.9209 43.051 25.7361C43.051 22.5514 40.727 20.7438 38.3169 20.7438ZM38.3169 28.7487C37.1118 28.7487 35.9068 27.8019 35.9068 25.8222C35.9068 23.9286 37.1118 22.8957 38.3169 22.8096C39.608 22.8096 40.727 23.9286 40.727 25.8222C40.727 27.7158 39.5219 28.7487 38.3169 28.7487ZM48.9901 20.7438C46.4939 20.7438 44.256 22.5514 44.256 25.7361C44.256 28.9209 46.4939 30.7284 48.9901 30.7284C51.4862 30.7284 53.7241 28.9209 53.7241 25.7361C53.7241 22.5514 51.4001 20.7438 48.9901 20.7438ZM48.9901 28.7487C47.785 28.7487 46.58 27.8019 46.58 25.8222C46.58 23.9286 47.785 22.8957 48.9901 22.8096C50.2812 22.8096 51.4001 23.9286 51.4001 25.8222C51.4001 27.7158 50.1951 28.7487 48.9901 28.7487ZM57.5975 30.5563V17.6452H55.2735V30.5563H57.5975Z" fill="white"/>
<path d="M57.6836 10.1567H26.2666V12.9972H57.5976L57.6836 10.1567Z" fill="white"/>
</svg>
