<svg width="149" height="81" viewBox="0 0 149 81" fill="none" xmlns="http://www.w3.org/2000/svg">
<path d="M67.6443 54.8656C67.7267 54.8769 67.7445 54.8802 67.8248 54.8906C69.1667 55.073 70.4854 55.3148 71.4947 55.766C72.4301 56.179 72.9784 56.7017 73.4791 57.6334C74.2403 59.0462 74.2899 61.0255 73.602 62.5235C73.0881 63.6382 71.96 64.5729 70.9301 65.0683C69.8606 65.5868 68.8069 65.8337 67.5984 65.9717C65.4847 66.2044 63.2018 65.7665 61.2998 64.8466C60.1746 64.2971 58.8005 63.3508 58.1074 62.1317C57.5977 61.2386 57.6139 60.0765 58.234 59.2277C59.2225 57.8747 61.3396 57.5769 62.9342 57.6334C64.1499 57.6805 66.3389 58.0562 67.4932 58.4669C67.8131 58.5825 68.993 59.0422 69.1989 59.253C69.3439 59.3996 69.4379 59.6127 69.3728 59.8097C69.1091 60.6163 67.1488 61.0416 66.5828 61.127C65.0675 61.3591 64.2812 60.7856 62.5585 60.1054C62.1308 59.9379 61.5609 59.7521 61.1255 59.7119C60.3434 59.6374 59.3988 59.8564 59.2495 60.7102C59.1753 61.1502 59.6912 61.5617 60.0848 61.7347C61.0089 62.1317 61.7601 62.2744 62.6696 62.2866C65.3564 62.3309 68.3758 61.8885 70.5734 60.3315C70.8743 60.1167 71.1697 59.8025 71.1729 59.4063C71.1824 58.6063 69.7799 58.1172 69.7799 58.1172C68.2996 57.5 65.5644 57.1996 64.1553 57.0836C62.6766 56.9556 60.35 56.7641 59.7914 56.6819C59.2162 56.5998 58.5915 56.4837 58.0934 56.2605C57.593 56.0345 57.1036 55.5286 56.9583 54.969C56.7007 53.9601 57.0294 52.7222 57.5896 51.9163C59.058 49.8052 62.4977 49.0035 65.0673 48.685C67.5544 48.3756 71.5752 48.3787 74.018 49.6768C74.3951 49.879 74.5878 50.067 74.509 50.4702C74.3498 51.2271 73.781 51.715 73.0914 51.9288C72.368 52.159 70.8716 52.2487 70.2144 52.2901C67.2692 52.4552 63.7102 52.3686 60.905 53.1336C60.6852 53.1963 60.3056 53.2987 60.1822 53.4365C59.7431 53.9131 60.9972 54.0493 61.2659 54.1039C61.3457 54.1229 61.3612 54.1256 61.4445 54.1347L67.6443 54.8656M50.1235 41.7332C50.1235 41.7332 50.6026 41.0147 51.004 40.4697C51.7348 39.477 53.0575 38.1004 54.0536 37.2481C54.3583 36.9878 54.7175 36.693 54.7175 36.693C54.7175 36.693 54.1556 36.7511 53.8372 36.8162C53.0815 36.9632 51.9734 37.6998 51.4197 38.1757C50.506 38.9578 49.5013 40.2292 49.9559 41.3589C50.0219 41.5185 50.1235 41.7332 50.1235 41.7332M55.2026 43.0923C56.646 42.9928 57.998 42.5773 59.2568 41.879C60.4912 41.1883 62.3069 39.8413 62.1186 38.2579C62.0614 37.7453 61.7258 37.3584 61.3022 37.1778C60.7517 36.9393 60.4646 36.9777 59.7613 37.1867C59.2504 37.3362 59.0202 37.4269 58.5377 37.703C57.1218 38.5257 55.1141 40.2862 54.0242 41.6913C53.7727 42.0227 53.5179 42.3932 53.3185 42.6473C53.1928 42.8039 53.095 42.9477 53.1073 42.986C53.1508 43.1452 54.639 43.1306 55.2026 43.0923ZM51.5277 45.7916C51.3789 45.9491 51.2214 46.3288 51.0581 46.6037C50.9707 46.7507 50.8091 46.9401 50.7021 47.0161C50.3265 47.2923 50.0082 47.3052 49.6455 46.986C49.137 46.5362 48.8429 45.8405 48.822 45.1637C48.8111 44.8684 48.8618 44.5417 48.8059 44.2927C48.7134 43.8724 48.2928 43.4394 48.066 43.0375C47.7997 42.5641 47.5843 41.7387 47.5575 41.2057C47.4661 39.5439 48.3421 38.0131 49.48 36.8058C50.626 35.5848 52.1252 34.5702 53.7557 33.8794C55.297 33.2302 57.5555 32.7877 59.248 33.3738C59.799 33.5626 60.5666 34.0315 60.9524 34.5228C61.0343 34.6247 61.1011 34.735 61.1851 34.7889C61.2604 34.8369 61.4572 34.8558 61.6138 34.8846C62.1536 34.9781 62.9308 35.3868 63.2483 35.6591C63.8862 36.2093 64.2356 36.7353 64.3973 37.4986C64.7215 39.0345 63.837 40.7195 62.8296 41.7451C61.1047 43.5101 59.4012 44.7512 57.1945 45.6151C56.2252 45.9937 54.7157 46.3474 53.6161 46.2485C53.2746 46.2201 52.9238 46.1302 52.5913 46.1081C52.4216 46.0935 51.8011 45.9335 51.7348 45.8883C51.6526 45.8251 51.5463 45.7702 51.5277 45.7916M53.4985 49.1969C53.5657 49.2082 53.6693 49.2383 53.7584 49.2726C54.532 49.5668 54.8503 50.2828 55.0408 51.0692C55.4825 52.8953 55.6709 56.9353 55.7444 58.5166C55.7983 59.7036 55.828 60.8713 55.8778 62.0445C55.9199 63.038 55.9992 64.3589 55.7921 65.2897C55.7168 65.6245 55.4929 66.0139 55.1722 66.2132C54.805 66.4483 53.9689 66.4662 53.5094 66.3715C52.3767 66.1372 52.0087 65.4089 51.847 64.2887C51.4627 61.6158 51.6478 56.37 51.8746 54.1565C51.95 53.4253 52.2253 51.0827 52.6071 50.1005C52.7374 49.7693 53.015 49.1022 53.4985 49.1969M19.0403 53.6441C19.0403 53.6441 17.3545 53.7634 16.1942 53.8921C14.7181 54.0511 11.9445 54.53 10.3435 55.1017C9.86324 55.2737 8.88774 55.6819 8.80296 56.1757C8.71385 56.6875 9.03152 57.0877 9.3848 57.5018C9.58908 57.7423 10.7453 58.8546 11.0695 59.1249C12.4286 60.2595 15.1843 62.0093 17.214 62.8591C17.9113 63.1476 19.0649 63.5606 19.0649 63.5606C19.0649 63.5606 18.9792 60.276 18.9945 57.0406C19.0035 55.3339 19.0403 53.6441 19.0403 53.6441M49.9508 54.9512C50.0474 55.8336 49.8206 57.502 49.7813 57.722C49.7095 58.2292 49.327 59.3992 49.2635 59.5419C48.9548 60.2529 48.6504 60.8355 48.3278 61.4166C47.775 62.4115 46.4605 63.9887 45.6802 64.6636C42.7785 67.1717 38.2864 68.5997 34.4327 69.0701C31.8177 69.386 28.813 69.3397 26.0422 68.827C25.0886 68.6535 23.6695 68.3265 23.6695 68.3265C23.6695 68.3265 23.6742 68.8939 23.6287 69.2929C23.6067 69.475 23.4696 69.9541 23.3927 70.1094C23.1913 70.5256 22.8605 70.7403 22.3795 70.8327C21.799 70.9404 21.1833 70.9763 20.6469 70.747C19.7662 70.3764 19.45 69.5524 19.2966 68.6021C19.1724 67.8421 19.0425 66.5209 19.0425 66.5209C19.0425 66.5209 18.3836 66.2089 17.8343 65.9347C16.1469 65.1033 14.5442 64.0959 13.1421 63.0599C12.7537 62.77 11.0849 61.3724 10.7166 61.0253C9.68369 60.0448 8.75453 59.0693 8.04768 57.8175C7.49817 56.8397 7.33993 55.9717 7.75787 54.9356C8.3342 53.4913 10.4049 52.4039 11.822 51.7842C12.8622 51.325 16.0965 50.2689 17.44 50.0731C18.0746 49.9824 19.0589 49.8061 19.1194 49.7668C19.1441 49.7479 19.1613 49.7318 19.1791 49.7114C19.2101 49.6677 19.2624 48.2381 19.2523 47.7151C19.2392 47.2009 19.6328 43.8236 19.7593 43.1095C19.8254 42.7233 20.1178 41.2366 20.4164 40.8463C20.6118 40.5826 20.9572 40.6039 21.2388 40.777C22.7797 41.7353 23.2479 45.0584 23.3625 46.7492C23.431 47.7794 23.4651 49.329 23.4651 49.329C23.4651 49.329 25.2328 49.2767 26.3202 49.3076C27.377 49.3322 28.5417 49.4989 29.6385 49.6737C31.0426 49.8988 33.7796 50.4958 35.3493 51.2916C36.6419 51.9469 37.8518 53.051 38.2438 54.2195C38.608 55.2906 38.5534 56.0319 37.9987 56.9986C37.375 58.0902 36.1952 58.9015 34.999 58.9693C34.6431 58.9899 33.3033 58.8118 32.891 58.4926C32.7293 58.3654 32.7377 58.1358 32.8543 57.9801C32.8986 57.9254 33.5248 57.5924 33.8945 57.3981C34.0691 57.3048 34.2315 57.1902 34.3779 57.0569C34.6849 56.7865 34.9613 56.4888 34.9305 56.1398C34.888 55.6868 34.4087 55.4075 33.9519 55.2278C31.8084 54.3762 27.5286 53.6694 25.4605 53.5471C24.651 53.4995 23.4995 53.4588 23.4995 53.4588L23.743 64.8791C23.743 64.8791 24.695 65.0604 25.4452 65.182C25.8756 65.2473 27.6995 65.4115 28.1842 65.4234C31.8747 65.5208 35.9936 65.1903 39.3804 63.5922C40.8672 62.8925 42.2313 62.0213 43.264 60.8419C44.6252 59.2815 45.338 57.1458 45.1493 54.9152C44.9425 52.479 43.228 49.5871 41.8588 47.8262C38.2413 43.174 32.0403 39.3471 26.5849 37.1035C21.0153 34.8144 15.5106 33.4975 9.59966 33.277C8.07584 33.2205 4.75329 33.2974 3.07377 33.762C2.83388 33.8296 2.59205 33.9104 2.3693 33.9605C2.19333 34.0035 1.91604 34.12 1.8399 34.1816C1.81005 34.2067 1.78202 34.2339 1.75602 34.2629C1.75602 34.2629 1.85957 34.3201 1.95851 34.362C2.13641 34.4396 2.88529 34.4861 3.27283 34.5571C3.61956 34.6223 3.98058 34.8044 4.12347 35.0584C4.25921 35.3 4.2762 35.4904 4.11394 35.6918C3.73339 36.1546 2.30106 36.0765 1.67034 35.9767C1.01489 35.8723 0.198822 35.6717 0.0489286 35.101C-0.124954 34.4289 0.194352 33.77 0.539286 33.1609C1.23228 31.9423 2.22492 31.3084 3.67856 30.9115C5.74325 30.3433 8.35029 29.9461 10.3 29.8716C14.7127 29.7049 18.8892 30.4765 23.1647 31.7746C25.6118 32.5146 28.8154 33.7562 31.1608 34.8854C32.8438 35.6969 35.4953 37.1891 36.9849 38.1643C37.4547 38.4744 40.2039 40.4944 40.6309 40.8495C41.5218 41.5778 42.687 42.6246 43.5308 43.4619C45.1632 45.0796 47.1936 47.5592 48.18 49.5273C48.4173 49.9986 48.6012 50.4623 48.9074 51.0085C49.0127 51.1957 49.4633 52.315 49.5383 52.6383C49.6125 52.9582 49.7212 53.4285 49.7366 53.4471C49.7583 53.6189 49.9672 54.5805 49.9508 54.9512M105.427 52.4261C103.36 52.9026 97.9262 53.1673 97.9262 53.1673L97.241 55.3137C97.241 55.3137 99.9566 55.0819 101.932 55.2883C101.932 55.2883 102.572 55.2139 102.648 56.0149C102.673 56.762 102.584 57.5636 102.584 57.5636C102.584 57.5636 102.543 58.0486 101.856 58.172C101.111 58.2961 96.0025 58.4937 96.0025 58.4937L95.1752 61.2916C95.1752 61.2916 94.8678 61.9384 95.5568 61.7538C96.1969 61.5825 101.55 60.578 102.247 60.7226C102.994 60.9081 103.821 61.9041 103.582 62.8119C103.297 63.9369 97.9544 67.3441 94.701 67.1063C94.701 67.1063 92.9913 67.2166 91.5463 64.9093C90.2006 62.7107 92.0564 58.5476 92.0564 58.5476C92.0564 58.5476 91.2057 56.6042 91.8221 55.9455C91.8221 55.9455 92.189 55.6126 93.2583 55.5374L94.5677 52.8284C94.5677 52.8284 93.0763 52.9311 92.189 51.8339C91.3625 50.7929 91.2932 50.3145 91.9269 50.0271C92.6045 49.6924 98.8157 48.5588 103.09 48.7026C103.09 48.7026 104.575 48.5568 105.863 51.1333C105.864 51.1334 106.488 52.1754 105.427 52.4261M89.3511 62.8421C88.8034 64.1305 87.3565 65.5055 85.5589 64.6508C83.7845 63.7944 80.9581 58.0096 80.9581 58.0096C80.9581 58.0096 79.8852 55.8525 79.6788 55.9081C79.6788 55.9081 79.447 55.4869 79.3048 57.8441C79.157 60.1912 79.3333 64.7681 78.397 65.4885C77.51 66.2108 76.436 65.9233 75.879 65.0793C75.3727 64.2479 75.162 62.2723 75.4383 58.8026C75.7629 55.3261 76.5705 51.6273 77.6024 50.4756C78.6327 49.3316 79.4599 50.1621 79.7824 50.4634C79.7824 50.4634 81.1606 51.7126 83.4335 55.3808L83.8346 56.0593C83.8346 56.0593 85.9 59.5249 86.1157 59.5169C86.1157 59.5169 86.2846 59.6762 86.4351 59.5617C86.6518 59.4997 86.5644 58.3885 86.5644 58.3885C86.5644 58.3885 86.1359 54.6117 84.2516 48.219C84.2516 48.219 83.9667 47.4218 84.1594 46.6749C84.3507 45.9201 85.1073 46.2744 85.1073 46.2744C85.1073 46.2744 88.0277 47.7428 89.4453 52.4975C90.8535 57.2537 89.9072 61.544 89.3511 62.8421M120.782 59.9944C119.452 62.3139 115.699 67.1707 110.712 66.024C109.065 70.0181 107.681 74.0585 106.89 80.1043C106.89 80.1043 106.716 81.2792 105.74 80.8711C104.772 80.5324 103.178 78.9236 102.856 76.698C102.509 73.7745 103.81 68.8323 106.471 63.1654C105.695 61.9041 105.166 60.1021 105.619 57.5362C105.619 57.5362 106.287 52.7714 111.072 48.4767C111.072 48.4767 111.646 47.9813 111.978 48.1339C112.345 48.2875 112.175 49.838 111.884 50.5919C111.582 51.3416 109.452 55.0297 109.452 55.0297C109.452 55.0297 108.123 57.5215 108.497 59.4868C111.007 55.6281 116.712 47.8471 120.248 50.3008C121.436 51.1507 121.984 52.9993 121.984 54.9913C121.984 56.741 121.562 58.6007 120.782 59.9944M119.75 53.8833C119.75 53.8833 119.553 52.3492 118.053 54.0393C116.763 55.4656 114.436 58.1377 112.563 61.7672C114.529 61.5465 116.424 60.4803 116.997 59.9372C117.929 59.1104 120.1 56.8672 119.75 53.8833M148.258 53.5341H139.117C138.934 50.4273 138.559 47.401 137.97 44.2842C137.941 44.1281 137.858 43.9871 137.736 43.8855C137.614 43.7838 137.461 43.728 137.302 43.7277H135.195C135.103 43.7279 135.014 43.7483 134.931 43.7874C134.849 43.8265 134.776 43.8834 134.719 43.9539C134.66 44.0246 134.618 44.1074 134.596 44.1963C134.573 44.2852 134.57 44.378 134.588 44.4681C135.187 47.4841 135.566 50.4526 135.753 53.5371H126.959C126.549 53.5371 126.216 53.8689 126.216 54.277V56.1776C126.217 56.3746 126.295 56.5634 126.434 56.7027C126.573 56.842 126.762 56.9205 126.959 56.9209H135.879C135.885 57.3899 135.889 57.8099 135.889 58.204C135.889 60.9432 135.771 63.1997 135.495 65.7461C135.484 65.843 135.494 65.9411 135.525 66.0338C135.555 66.1265 135.605 66.2115 135.671 66.2832C135.735 66.3551 135.813 66.4125 135.901 66.4519C135.989 66.4913 136.084 66.5117 136.18 66.5118H138.135C138.318 66.5121 138.495 66.444 138.631 66.3207C138.767 66.1974 138.853 66.0278 138.87 65.845C139.137 63.2813 139.252 60.9969 139.252 58.2039C139.252 57.8113 139.248 57.3898 139.242 56.9207H148.258C148.666 56.9207 149 56.5865 149 56.1775V54.2769C149 54.08 148.921 53.8913 148.782 53.7521C148.643 53.6128 148.454 53.5344 148.258 53.5341" fill="#101C50"/>
<path d="M26.0324 28.0651C25.9686 28.1595 25.9277 28.2673 25.9127 28.3802C25.8977 28.4931 25.9091 28.6079 25.946 28.7157C25.9831 28.8235 26.0442 28.9214 26.1247 29.0022C26.2051 29.083 26.3029 29.1444 26.4106 29.1819L28.0491 29.7333C28.1442 29.7639 28.2434 29.7798 28.3432 29.7806C28.4929 29.7808 28.6403 29.7442 28.7724 29.6739C28.9045 29.6037 29.0173 29.502 29.1008 29.3778C34.468 21.4929 41.7321 14.9278 50.1088 10.3923C58.7568 5.70922 68.5548 3.2321 78.4468 3.2321C90.3947 3.2321 101.923 6.75654 111.786 13.4237C121.409 19.9269 128.883 29.0001 133.399 39.6627C133.465 39.8184 133.575 39.9513 133.716 40.0446C133.857 40.138 134.022 40.1877 134.191 40.1876H136.148C136.26 40.1872 136.37 40.1594 136.468 40.1068C136.567 40.0542 136.651 39.9782 136.713 39.8856C136.776 39.7929 136.815 39.6862 136.827 39.5748C136.838 39.4635 136.822 39.351 136.78 39.2473C132.123 27.7828 124.248 18.0097 114.003 10.9884C103.515 3.80024 91.2199 0 78.4468 0C57.3304 0 37.7356 10.492 26.0324 28.0651" fill="url(#paint0_linear_2_158)"/>
<defs>
<linearGradient id="paint0_linear_2_158" x1="138.645" y1="26.1298" x2="28.2351" y2="11.2018" gradientUnits="userSpaceOnUse">
<stop stop-color="#101C50"/>
<stop offset="0.236" stop-color="#0D267A"/>
<stop offset="0.497" stop-color="#085AA4"/>
<stop offset="0.655" stop-color="#058BBF"/>
<stop offset="1" stop-color="#B1FFFF"/>
</linearGradient>
</defs>
</svg>
