<svg width="114" height="48" viewBox="0 0 114 48" fill="none" xmlns="http://www.w3.org/2000/svg">
<path d="M55.6493 0.486267C59.1611 0.486267 69.1564 2.40428 69.1564 12.2375C69.1564 20.1526 65.3744 22.5029 62.4029 23.0431C60.2417 23.4484 68.6161 23.0431 68.6161 32.9574C68.6161 47.0048 56.4597 46.4645 56.4597 46.4645H36.1991V0.486267H55.6493ZM47.545 11.6972V18.6398H54.2986C54.2986 18.6398 57 18.3157 57 14.9929C57 11.6702 54.2986 11.6972 54.2986 11.6972H47.545ZM47.545 28.6351V35.6588H54.2986C54.2986 35.6588 57 35.3886 57 31.8768C57 28.6351 54.2986 28.6351 54.2986 28.6351H47.545ZM0 0.486267V46.4645H12.6967V29.4455H20.801V46.4645H33.4976V0.486267H20.801V17.8294H12.6967V0.486267H0Z" fill="black"/>
<path fill-rule="evenodd" clip-rule="evenodd" d="M90.4976 11.8863C84.0822 11.8863 78.8815 17.087 78.8815 23.5024C78.8815 29.9178 84.0822 35.1185 90.4976 35.1185C96.913 35.1185 102.114 29.9178 102.114 23.5024C102.114 17.087 96.913 11.8863 90.4976 11.8863ZM66.9952 23.5024C66.9952 10.5224 77.5176 0 90.4976 0C103.478 0 114 10.5224 114 23.5024C114 36.4824 103.478 47.0047 90.4976 47.0047C77.5176 47.0047 66.9952 36.4824 66.9952 23.5024Z" fill="black"/>
<path d="M90.4976 32.9573C95.7194 32.9573 99.9526 28.7242 99.9526 23.5024C99.9526 18.2805 95.7194 14.0474 90.4976 14.0474C85.2757 14.0474 81.0426 18.2805 81.0426 23.5024C81.0426 28.7242 85.2757 32.9573 90.4976 32.9573Z" fill="black"/>
</svg>
