<svg width="174" height="47" viewBox="0 0 174 47" fill="none" xmlns="http://www.w3.org/2000/svg">
<path d="M23.9255 43.9705C21.308 44.4299 18.6445 44.5676 15.8892 44.9345L7.48523 20.3331V45.9903C4.86775 46.2656 2.47984 46.6328 0 47V0H6.98039L16.532 26.6674V0H23.9255V43.9705ZM38.3911 17.2119C41.2385 17.2119 45.6011 17.0742 48.2186 17.0742V24.4178C44.9579 24.4178 41.1466 24.4178 38.3911 24.5555V35.4795C42.708 35.2042 47.0247 34.8367 51.3871 34.699V41.7669L31.0434 43.3737V0H51.3871V7.34376H38.3911V17.2119V17.2119ZM78.7109 7.34393H71.0878V41.1251C68.608 41.1251 66.1282 41.1251 63.7406 41.2167V7.34393H56.1175V0H78.7112L78.7109 7.34393V7.34393ZM90.6506 16.7072H100.708V24.0508H90.6506V40.7121H83.4403V0H103.968V7.34376H90.6506V16.7072V16.7072ZM115.908 34.2861C120.087 34.3777 124.312 34.6995 128.399 34.9286V42.1806C121.832 41.7673 115.265 41.3547 108.561 41.2167V0H115.908V34.2861ZM134.598 42.6856C136.94 42.8235 139.42 42.9612 141.808 43.2362V0H134.598V42.6856V42.6856ZM174 0L164.678 22.3526L174 47C171.244 46.6328 168.489 46.1279 165.734 45.6688L160.453 32.0832L155.08 44.5676C152.416 44.1083 149.845 43.9705 147.182 43.6033L156.642 22.077L148.1 0H155.998L160.82 12.3467L165.964 0H174V0Z" fill="#D81F26"/>
</svg>
