<svg width="134" height="37" viewBox="0 0 134 37" fill="none" xmlns="http://www.w3.org/2000/svg">
<path d="M3.48442 18.6134C2.18324 17.9216 2.11896 16.0806 3.3687 15.2997L21.1776 4.17146C22.4273 3.39053 24.0538 4.25534 24.1053 5.72812L24.8381 26.7152C24.8896 28.188 23.3274 29.1641 22.0262 28.4723L3.48442 18.6134Z" fill="#AEDD7E" fill-opacity="0.8"/>
<path d="M3.87154 22.7049C2.5953 21.9681 2.5953 20.126 3.87154 19.3891L22.058 8.88919C23.3342 8.15235 24.9295 9.0734 24.9295 10.5471L24.9295 31.5469C24.9295 33.0206 23.3342 33.9417 22.058 33.2048L3.87154 22.7049Z" fill="#428DFD"/>
<path d="M13.5 21.866C12.8333 21.4811 12.8333 20.5189 13.5 20.134L18 17.5359C18.6667 17.151 19.5 17.6321 19.5 18.4019V23.5981C19.5 24.3679 18.6667 24.849 18 24.4641L13.5 21.866Z" fill="white"/>
<path d="M38.8071 19.237V14.568H41.3601C43.1771 14.568 43.9821 15.442 43.9821 16.914C43.9821 18.34 43.1771 19.237 41.3601 19.237H38.8071ZM47.2941 16.914C47.2941 14.131 45.3621 11.946 41.4981 11.946H35.5871V28H38.8071V21.836H41.4981C45.6381 21.836 47.2941 19.352 47.2941 16.914ZM67.4052 28H70.6252V20.525C70.6252 17.006 68.4632 15.074 65.4042 15.074C63.5412 15.074 61.8622 16.063 61.0342 17.512C60.1602 15.925 58.5272 15.074 56.5492 15.074C54.9622 15.074 53.6052 15.741 52.8002 16.799V15.258H49.5802V28H52.8002V20.962C52.8002 18.938 53.9272 17.88 55.6752 17.88C57.3772 17.88 58.5042 18.938 58.5042 20.962V28H61.7242V20.962C61.7242 18.938 62.8512 17.88 64.5762 17.88C66.2782 17.88 67.4052 18.938 67.4052 20.962V28ZM85.9858 21.629C85.9858 17.604 83.1108 15.051 79.4308 15.051C75.7508 15.051 72.8758 17.604 72.8758 21.629C72.8758 25.631 75.6588 28.207 79.3388 28.207C83.0418 28.207 85.9858 25.631 85.9858 21.629ZM76.1418 21.629C76.1418 19.076 77.6828 17.857 79.3848 17.857C81.0868 17.857 82.6738 19.076 82.6738 21.629C82.6738 24.159 81.0408 25.401 79.3388 25.401C77.6138 25.401 76.1418 24.159 76.1418 21.629ZM86.9908 15.258L91.6828 28H95.5928L100.308 15.258H96.8808L93.6608 25.033L90.4408 15.258H86.9908ZM102.116 28H105.336V15.258H102.116V28ZM103.749 13.74C104.876 13.74 105.727 12.912 105.727 11.854C105.727 10.796 104.876 9.968 103.749 9.968C102.599 9.968 101.771 10.796 101.771 11.854C101.771 12.912 102.599 13.74 103.749 13.74ZM113.992 17.696C115.648 17.696 116.982 18.754 117.028 20.433H110.979C111.232 18.685 112.451 17.696 113.992 17.696ZM120.041 23.998H116.568C116.154 24.849 115.395 25.539 114.015 25.539C112.405 25.539 111.117 24.481 110.956 22.595H120.271C120.34 22.181 120.363 21.767 120.363 21.353C120.363 17.558 117.764 15.051 114.084 15.051C110.312 15.051 107.69 17.604 107.69 21.629C107.69 25.631 110.381 28.207 114.084 28.207C117.235 28.207 119.351 26.344 120.041 23.998ZM132.603 24.366C132.511 19.697 125.45 21.146 125.45 18.823C125.45 18.087 126.071 17.604 127.267 17.604C128.532 17.604 129.314 18.271 129.406 19.26H132.488C132.304 16.73 130.441 15.051 127.359 15.051C124.208 15.051 122.322 16.753 122.322 18.869C122.322 23.538 129.521 22.089 129.521 24.366C129.521 25.102 128.831 25.677 127.566 25.677C126.278 25.677 125.381 24.941 125.266 23.975H122.023C122.161 26.344 124.392 28.207 127.589 28.207C130.694 28.207 132.603 26.551 132.603 24.366Z" fill="black"/>
</svg>
