<svg width="148" height="49" viewBox="0 0 148 49" fill="none" xmlns="http://www.w3.org/2000/svg">
<path d="M90.692 49H102.483V0H90.692V49ZM69.9898 35.0295C69.9898 36.75 68.5503 38.1952 66.8365 38.1952H59.9815C58.2677 38.1952 56.8282 36.75 56.8282 35.0295V15.2781H45.0375V35.993C45.0375 44.4579 50.453 48.9312 58.4048 48.9312H69.9213C77.2561 48.9312 81.7119 43.632 81.7119 35.993V15.2781H69.9213C69.9898 15.2781 69.9898 34.4101 69.9898 35.0295V35.0295ZM136.278 15.2781V35.0295C136.278 36.75 134.838 38.1952 133.125 38.1952H126.27C124.556 38.1952 123.116 36.75 123.116 35.0295V15.2781H111.326V35.993C111.326 44.4579 116.741 48.9312 124.693 48.9312H136.209C143.544 48.9312 148 43.632 148 35.993V15.2781H136.278ZM23.3071 15.2781H15.7666C13.0931 15.2781 11.7906 15.9663 11.7906 15.9663V0H0V48.9312H11.7221V29.2486C11.7221 27.5281 13.1617 26.0829 14.8754 26.0829H21.7304C23.4442 26.0829 24.8837 27.5281 24.8837 29.2486V49H36.6744V27.6657C36.6744 18.7191 30.7105 15.2781 23.3071 15.2781V15.2781Z" fill="#1CE783"/>
</svg>
