<svg width="201" height="62" viewBox="0 0 201 62" fill="none" xmlns="http://www.w3.org/2000/svg">
<path d="M99.2644 61.6493V61.5491C99.3645 61.4239 99.5398 61.3488 99.69 61.3739C100.416 61.3488 101.117 61.3488 101.843 61.3739C101.993 61.3739 102.168 61.4239 102.269 61.5491V61.6493H99.2644Z" fill="#D1EFFA"/>
<path d="M102.269 61.5491C101.267 61.5241 100.266 61.5241 99.2643 61.5491C97.8874 61.474 96.5104 61.424 95.1335 61.3238C91.4784 61.0484 87.8483 60.4977 84.2933 59.6715C72.001 56.8175 61.2109 51.0844 51.7977 42.7477C50.9214 41.9717 50.0953 41.1705 49.2441 40.3694C49.0438 40.1942 48.8686 39.9438 48.7684 39.6935C48.6182 39.343 48.6933 38.9674 48.9437 38.692C49.194 38.4167 49.5946 38.3165 49.9451 38.4667C50.1704 38.5669 50.3957 38.667 50.596 38.7922C59.5836 44.35 69.3974 48.4057 79.6868 50.8091C83.1417 51.6102 86.6216 52.2361 90.1265 52.6867C95.1585 53.3126 100.241 53.5379 105.298 53.3626C108.027 53.2875 110.73 53.0372 113.434 52.6867C119.743 51.8856 125.977 50.4586 132.01 48.4558C135.19 47.4043 138.294 46.2026 141.323 44.8006C141.774 44.5503 142.325 44.4752 142.825 44.6003C143.652 44.8006 144.152 45.6518 143.952 46.478C143.927 46.5781 143.877 46.7033 143.827 46.8034C143.627 47.179 143.351 47.5044 143.001 47.7548C140.122 50.0079 137.017 51.9857 133.738 53.638C127.554 56.7674 120.945 58.9956 114.135 60.2723C110.205 60.9733 106.249 61.3989 102.269 61.5491V61.5491ZM65.1915 10.8029C65.8174 10.4274 66.4683 10.0268 67.1442 9.67632C68.8967 8.77505 70.8494 8.32442 72.8272 8.42456C74.2542 8.49966 75.556 8.90023 76.5574 9.9517C77.5088 10.9281 77.8593 12.1298 77.9594 13.4316C77.9844 13.707 77.9844 13.9824 77.9844 14.2828V27.251C77.9844 28.3776 77.8342 28.5278 76.7076 28.5278H73.6534C73.4531 28.5278 73.2528 28.5278 73.0525 28.5027C72.7521 28.4777 72.5017 28.2274 72.4517 27.9269C72.4016 27.6515 72.4016 27.3762 72.4016 27.1008V15.5095C72.4266 15.0338 72.3766 14.5832 72.2514 14.1326C72.0511 13.3565 71.3501 12.8057 70.549 12.7556C69.0719 12.6555 67.5949 12.9559 66.243 13.5818C66.0427 13.6319 65.9175 13.8321 65.9425 14.0324V27.2009C65.9425 27.4513 65.9425 27.6766 65.8925 27.9269C65.8925 28.2774 65.6171 28.5278 65.2666 28.5278C64.8911 28.5528 64.5155 28.5528 64.115 28.5528H61.4612C60.5349 28.5528 60.3347 28.3275 60.3347 27.4012V15.5596C60.3347 15.134 60.3096 14.6833 60.2095 14.2577C60.0342 13.4066 59.3082 12.8057 58.457 12.7556C56.9549 12.6555 55.4278 12.9559 54.0759 13.6068C53.8756 13.6569 53.7504 13.8822 53.8005 14.0825V27.4262C53.8005 28.3525 53.6002 28.5528 52.6739 28.5528H49.3192C48.443 28.5528 48.2177 28.3025 48.2177 27.4513V10.0769C48.2177 9.8766 48.2427 9.67632 48.2928 9.47604C48.3929 9.17561 48.6933 9.00037 48.9937 9.00037H52.1231C52.5738 9.00037 52.8492 9.27575 52.9994 9.70135C53.1245 10.0518 53.1996 10.3773 53.3248 10.7528C53.5752 10.7528 53.7254 10.5776 53.9006 10.4774C55.2776 9.62625 56.7296 8.90023 58.3569 8.59981C59.6086 8.34945 60.8604 8.34945 62.1122 8.59981C63.2888 8.85016 64.3403 9.55114 65.0162 10.5525C65.0663 10.6277 65.1164 10.6777 65.1664 10.7278C65.1414 10.7528 65.1664 10.7528 65.1915 10.8029V10.8029Z" fill="#00A8E1"/>
<path d="M117.089 23.2704C117.24 22.7697 117.39 22.294 117.54 21.7933C118.692 17.9129 119.843 14.0575 120.995 10.177L121.145 9.72638C121.27 9.27575 121.696 9.00036 122.146 9.00036H125.952C126.903 9.00036 127.103 9.27575 126.778 10.177L125.276 14.1576C123.598 18.5137 121.921 22.8949 120.244 27.251C120.194 27.4012 120.119 27.5514 120.069 27.7016C119.893 28.2274 119.368 28.5778 118.817 28.5278C117.715 28.5027 116.614 28.5027 115.512 28.5278C114.736 28.5528 114.285 28.2023 114.01 27.5013C113.384 25.849 112.733 24.1717 112.107 22.5193C110.605 18.5888 109.078 14.6583 107.576 10.7028C107.426 10.4023 107.326 10.0518 107.251 9.72638C107.175 9.22568 107.351 8.97533 107.851 8.97533C109.278 8.95029 110.705 8.97533 112.107 8.97533C112.708 8.97533 112.984 9.37589 113.134 9.90163C113.409 10.853 113.685 11.8293 113.985 12.7807C115.011 16.2606 116.013 19.7655 117.039 23.2454C117.014 23.2704 117.039 23.2704 117.089 23.2704V23.2704Z" fill="#232F3E"/>
<path d="M28.1896 11.7542C28.3649 11.7042 28.5151 11.604 28.6152 11.4538C29.0659 11.0032 29.5415 10.5776 30.0422 10.177C31.3441 9.17562 32.9714 8.67492 34.5986 8.80009C35.2496 8.82513 35.4749 9.02541 35.5249 9.65129C35.575 10.5025 35.55 11.3787 35.55 12.2299C35.575 12.5804 35.55 12.9059 35.4999 13.2563C35.3998 13.707 35.2245 13.8822 34.7739 13.9323C34.4234 13.9573 34.0979 13.9323 33.7474 13.9073C32.0701 13.7571 30.4428 14.0825 28.8656 14.6082C28.5151 14.7334 28.5151 14.9838 28.5151 15.2592V27.276C28.5151 27.5013 28.5151 27.7016 28.4901 27.9269C28.465 28.2524 28.2147 28.5027 27.8892 28.5027C27.714 28.5278 27.5137 28.5278 27.3384 28.5278H24.0839C23.9086 28.5278 23.7084 28.5278 23.5331 28.5027C23.2076 28.4777 22.9573 28.2023 22.9323 27.8769C22.9072 27.6766 22.9072 27.4763 22.9072 27.276V10.2521C22.9072 9.10051 23.0324 8.97534 24.184 8.97534H26.5874C27.2383 8.97534 27.5387 9.20065 27.714 9.82653C27.8892 10.4524 28.0394 11.0783 28.1896 11.7542V11.7542ZM145.304 37.1399C146.956 37.1899 148.584 37.2901 150.186 37.7157C150.637 37.8409 151.062 37.9911 151.488 38.1913C152.064 38.4167 152.439 38.9674 152.514 39.5683C152.614 40.2693 152.639 40.9953 152.589 41.7213C152.264 46.0023 150.937 50.1331 148.734 53.8133C147.933 55.1401 146.956 56.3418 145.83 57.3933C145.604 57.6186 145.329 57.7939 145.029 57.894C144.553 58.0192 144.253 57.7688 144.228 57.2932C144.253 57.0428 144.303 56.7925 144.403 56.5421C145.279 54.1888 146.13 51.8605 146.806 49.4321C147.207 48.1053 147.482 46.7534 147.657 45.3764C147.707 44.8757 147.732 44.375 147.682 43.8743C147.657 43.0231 147.107 42.2971 146.28 42.0468C145.504 41.7964 144.703 41.6462 143.877 41.5961C141.574 41.496 139.271 41.5961 136.992 41.8965L133.963 42.2721C133.638 42.2971 133.337 42.2721 133.162 41.9717C132.987 41.6712 133.062 41.3708 133.237 41.0704C133.437 40.795 133.688 40.5447 133.988 40.3694C135.841 39.0425 137.919 38.2414 140.122 37.7157C141.824 37.3652 143.552 37.1899 145.304 37.1399V37.1399Z" fill="#00A8E1"/>
<path d="M134.814 18.7641V27.7768C134.764 28.2775 134.539 28.5028 134.038 28.5278C132.686 28.5528 131.359 28.5528 130.007 28.5278C129.507 28.5278 129.281 28.2775 129.231 27.8018C129.206 27.6516 129.206 27.4763 129.206 27.3261V10.0018C129.231 9.22571 129.432 9.0004 130.208 9.0004H133.813C134.589 9.0004 134.814 9.22571 134.814 10.0018V18.7641Z" fill="#232F3E"/>
<path d="M37.9533 18.714V9.82654C37.9783 9.2257 38.2037 9.00038 38.8045 8.97534C40.1063 8.95031 41.4082 8.95031 42.71 8.97534C43.2858 8.97534 43.461 9.15059 43.5111 9.7264C43.5362 9.95171 43.5361 10.152 43.5361 10.3773V27.0507C43.5361 27.3261 43.5111 27.6015 43.4861 27.8769C43.461 28.2023 43.2107 28.4277 42.8852 28.4527C42.735 28.4777 42.6099 28.4777 42.4596 28.4777H38.9798C38.8546 28.4777 38.7544 28.4777 38.6293 28.4527C38.2788 28.4277 37.9783 28.1523 37.9533 27.8018C37.9283 27.6015 37.9283 27.4012 37.9283 27.2009C37.9533 24.422 37.9533 21.568 37.9533 18.714ZM40.8574 0.0127619C41.258 -0.0122733 41.6585 0.0628321 42.034 0.188008C43.3859 0.63864 44.0869 1.81529 43.9617 3.34244C43.8616 4.64426 42.8852 5.69574 41.5834 5.89602C41.0326 5.99616 40.4568 5.99616 39.9061 5.89602C38.479 5.62063 37.4276 4.56916 37.5277 2.76663C37.6779 0.989133 38.8546 0.0127619 40.8574 0.0127619Z" fill="#00A8E1"/>
<path d="M132.035 0.0127596C132.536 -0.0373107 133.037 0.0628299 133.512 0.263111C134.489 0.638638 135.165 1.5399 135.215 2.59138C135.415 4.86958 133.888 6.02119 131.86 5.97112C131.585 5.97112 131.309 5.92105 131.034 5.87098C129.482 5.49546 128.681 4.29377 128.831 2.56634C128.956 1.18941 130.033 0.16297 131.51 0.0377948C131.685 0.0127596 131.86 -0.0122755 132.035 0.0127596V0.0127596Z" fill="#232F3E"/>
<path d="M19.202 16.6611C19.1018 15.3593 18.7513 14.0825 18.2256 12.9058C17.1991 10.7528 15.6219 9.17561 13.2186 8.62483C10.4647 8.02399 7.98621 8.62483 5.73305 10.3022C5.58284 10.4524 5.40759 10.5776 5.20731 10.6777C5.15724 10.6527 5.10717 10.6276 5.10717 10.6026C5.03206 10.3523 4.98199 10.1019 4.90689 9.85156C4.70661 9.22568 4.45626 9.00036 3.78031 9.00036C3.02925 9.00036 2.25316 9.0254 1.50211 9.00036C0.9263 8.97533 0.400562 9.05043 0 9.50106C0 18.2634 0 27.0507 0.0250351 35.788C0.350492 36.3137 0.851195 36.4138 1.427 36.3888C2.32827 36.3638 3.22953 36.3888 4.1308 36.3888C5.70801 36.3888 5.70801 36.3888 5.70801 34.8366V27.7016C5.70801 27.5264 5.63291 27.3261 5.80815 27.1759C7.05991 28.1522 8.58705 28.7531 10.1643 28.9033C12.3674 29.1286 14.3702 28.5778 16.0475 27.0757C17.2743 25.9492 18.1755 24.4971 18.6512 22.8949C19.3271 20.842 19.3772 18.7641 19.202 16.6611V16.6611ZM13.2186 21.8434C13.0433 22.6195 12.6427 23.3205 12.0669 23.8462C11.416 24.397 10.6149 24.7224 9.76371 24.7224C8.48691 24.7975 7.23516 24.5222 6.10858 23.9213C5.83319 23.7961 5.65794 23.5207 5.68298 23.2203V18.689C5.68298 17.1869 5.70801 15.6847 5.68298 14.1826C5.65794 13.8321 5.85822 13.5317 6.18368 13.4065C7.56061 12.7556 8.98762 12.4552 10.4897 12.7556C11.5412 12.9058 12.4425 13.5818 12.8681 14.5582C13.2436 15.3593 13.4689 16.2355 13.519 17.1117C13.6692 18.714 13.6692 20.3162 13.2186 21.8434V21.8434Z" fill="#00A8E1"/>
<path d="M200.306 20.5666C200.306 20.5666 200.306 20.5416 200.306 20.5666C200.306 20.5416 200.306 20.5416 200.306 20.5666ZM200.331 17.2119V17.312C200.231 17.2119 200.181 17.0617 200.231 16.9365V16.7362C200.231 16.7362 200.231 16.7112 200.256 16.7112H200.231V16.4608H200.281C200.281 16.4358 200.256 16.4358 200.256 16.4108C200.206 15.9351 200.106 15.4594 199.981 15.0088C199.055 11.7042 196.977 9.5261 193.597 8.6749C192.02 8.29937 190.417 8.2493 188.815 8.49966C185.435 9.00036 183.007 10.8029 181.83 14.0074C180.679 17.0617 180.704 20.4164 181.855 23.4707C182.857 26.2496 184.86 28.002 187.739 28.7281C189.266 29.1036 190.868 29.2037 192.445 28.9784C197.703 28.3525 199.881 24.3719 200.231 20.9171H200.206V20.5666C200.181 20.4164 200.156 20.2912 200.306 20.1911V20.2411C200.306 20.2161 200.331 20.166 200.356 20.141V17.262C200.356 17.2369 200.331 17.2369 200.331 17.2119V17.2119ZM194.323 21.9686C194.173 22.4943 193.947 22.97 193.622 23.4206C193.071 24.1967 192.195 24.6974 191.244 24.7725C190.768 24.8226 190.292 24.8226 189.817 24.7224C188.765 24.5221 187.889 23.8212 187.463 22.8448C187.088 22.0687 186.862 21.2175 186.787 20.3663C186.662 18.8892 186.637 17.4122 186.988 15.9601C187.113 15.3843 187.363 14.8085 187.664 14.3078C188.214 13.4065 189.166 12.8307 190.217 12.7556C190.693 12.7056 191.168 12.7056 191.644 12.8057C192.646 13.006 193.472 13.6569 193.922 14.5832C194.348 15.4594 194.598 16.4358 194.648 17.4122C194.673 17.8628 194.698 18.3134 194.673 18.7641C194.749 19.8656 194.623 20.9421 194.323 21.9686V21.9686ZM156.445 0.187988H152.965C152.014 0.187988 151.838 0.363234 151.838 1.31457V9.42596C151.838 9.6012 151.913 9.77645 151.788 9.95169C151.563 9.92666 151.438 9.77645 151.262 9.67631C148.659 8.14916 145.93 7.87378 143.176 9.15057C141.248 10.0518 140.047 11.6791 139.271 13.6068C138.52 15.4594 138.344 17.4122 138.394 19.3899C138.394 21.2425 138.82 23.0701 139.646 24.7224C140.597 26.55 141.974 27.952 143.977 28.5528C146.706 29.404 149.26 28.9784 151.588 27.251C151.763 27.1508 151.863 26.9756 152.089 26.9255C152.214 27.2009 152.314 27.5013 152.364 27.8018C152.464 28.2023 152.815 28.4777 153.24 28.4777H153.841C154.742 28.4777 155.619 28.5027 156.495 28.4777C157.196 28.4777 157.396 28.2524 157.421 27.5264V1.13932C157.396 0.363234 157.196 0.187988 156.445 0.187988V0.187988ZM151.863 18.6139V23.1703C151.913 23.4707 151.738 23.7461 151.463 23.8712C150.261 24.5472 148.884 24.8226 147.532 24.6223C146.381 24.4971 145.379 23.7961 144.853 22.7697C144.453 21.9686 144.228 21.1174 144.152 20.2411C143.952 18.6639 144.077 17.0617 144.453 15.5345C144.578 15.1089 144.728 14.7084 144.954 14.3078C145.479 13.3314 146.481 12.7056 147.582 12.6305C148.909 12.5053 150.236 12.7556 151.438 13.3064C151.738 13.4065 151.913 13.707 151.888 14.0324C151.838 15.5846 151.863 17.0867 151.863 18.6139V18.6139Z" fill="#232F3E"/>
<path d="M87.1223 20.3413C88.9999 20.6918 90.9276 20.7168 92.8052 20.4164C93.9068 20.2662 94.9583 19.9407 95.9346 19.415C97.0612 18.7641 97.8874 17.8628 98.2379 16.6111C99.1141 13.4566 97.7622 10.2772 94.4826 9.10052C92.8803 8.57479 91.178 8.39954 89.5006 8.62486C85.545 9.07549 82.9664 11.2535 81.7898 15.0339C80.9636 17.6125 81.0638 20.2412 81.7397 22.8448C82.6159 26.1745 84.819 28.1523 88.1487 28.8533C90.0514 29.2788 91.9791 29.2037 93.8818 28.9033C94.8832 28.7281 95.8846 28.4777 96.8359 28.1022C97.4117 27.8769 97.7121 27.5264 97.6871 26.8755C97.6621 26.2746 97.6871 25.6488 97.6871 25.0229C97.6871 24.2718 97.3867 24.0465 96.6607 24.2217C95.9346 24.397 95.2336 24.5472 94.5076 24.6974C92.9555 25.0229 91.3532 25.0229 89.801 24.7475C87.673 24.3219 86.2961 22.4943 86.4213 20.2412C86.6466 20.2662 86.8969 20.2912 87.1223 20.3413V20.3413ZM86.4964 16.5109C86.5715 15.9101 86.7467 15.3343 86.972 14.7835C87.7231 12.9559 89.3003 12.3301 90.9026 12.4302C91.3532 12.4552 91.8038 12.5554 92.2294 12.7306C92.8803 13.006 93.3059 13.6068 93.381 14.3078C93.4562 14.7334 93.4311 15.1841 93.3059 15.6097C93.0055 16.5109 92.2795 16.8865 91.4033 17.0617C90.8775 17.1869 90.3268 17.2369 89.776 17.1869C88.7996 17.1869 87.7982 17.1118 86.8218 16.9616C86.4463 16.9115 86.4463 16.9115 86.4964 16.5109V16.5109Z" fill="#00A8E1"/>
<path d="M171.566 20.5916C173.018 20.4915 174.47 20.2161 175.772 19.5151C177.098 18.8642 178.025 17.6375 178.3 16.1855C178.475 15.2842 178.475 14.3329 178.275 13.4316C177.749 11.1784 176.322 9.77646 174.169 9.05044C172.968 8.67491 171.691 8.5247 170.439 8.57477C166.233 8.67491 163.029 10.8029 161.727 15.0088C160.851 17.7877 160.976 20.6167 161.827 23.3956C162.703 26.2496 164.706 27.977 167.56 28.7531C168.787 29.0535 170.064 29.1787 171.315 29.1286C173.143 29.1036 174.971 28.7531 176.698 28.1022C177.424 27.8268 177.599 27.5764 177.599 26.8004V24.9978C177.574 24.2718 177.274 24.0215 176.548 24.1967C175.997 24.3469 175.471 24.4721 174.92 24.5973C173.243 24.9978 171.491 25.0729 169.788 24.7725C168.086 24.447 166.934 23.4707 166.484 21.7683C166.358 21.2676 166.258 20.7669 166.208 20.2411C166.333 20.2411 166.459 20.2411 166.559 20.2912C168.211 20.5916 169.888 20.7168 171.566 20.5916V20.5916ZM166.333 16.586C166.509 15.6096 166.734 14.6583 167.335 13.8572C168.261 12.6305 169.538 12.28 170.99 12.4302C171.115 12.4302 171.215 12.4803 171.34 12.4803C173.093 12.7556 173.518 14.1576 173.193 15.5095C172.943 16.5109 172.117 16.8864 171.19 17.0617C170.689 17.1618 170.164 17.2119 169.638 17.1869C168.612 17.1618 167.61 17.0867 166.609 16.9365C166.383 16.9115 166.283 16.8113 166.333 16.586V16.586Z" fill="#232F3E"/>
</svg>
